<?xml version="1.0" standalone="no"?>
<!DOCTYPE svg PUBLIC "-//W3C//DTD SVG 20010904//EN"
 "http://www.w3.org/TR/2001/REC-SVG-20010904/DTD/svg10.dtd">
<svg version="1.0" xmlns="http://www.w3.org/2000/svg"
 width="1024.000000pt" height="1024.000000pt" viewBox="0 0 1024.000000 1024.000000"
 preserveAspectRatio="xMidYMid meet">

<g transform="translate(0.000000,1024.000000) scale(0.100000,-0.100000)"
fill="#000000" stroke="none">
<path d="M4870 7749 c-426 -46 -896 -214 -1248 -446 -313 -206 -589 -482 -797
-798 -144 -220 -233 -400 -317 -645 -173 -506 -181 -1094 -22 -1618 231 -762
741 -1358 1464 -1711 274 -134 553 -217 880 -262 123 -17 495 -17 620 0 627
86 1192 363 1625 796 443 444 709 1000 790 1654 14 104 16 187 13 375 -5 221
-8 254 -37 400 -101 497 -309 928 -625 1295 -435 503 -1003 822 -1684 942
-134 24 -515 34 -662 18z m-112 -639 c53 -6 120 -17 147 -25 149 -42 159 -214
14 -255 -16 -5 -75 -2 -141 6 -147 18 -221 18 -315 -2 -237 -49 -423 -171
-551 -363 -68 -101 -99 -178 -116 -287 -13 -89 2 -79 -156 -103 -224 -34 -422
-221 -470 -442 -18 -82 -8 -249 19 -319 77 -202 256 -347 475 -385 49 -8 108
-15 132 -15 24 0 44 -2 44 -5 0 -3 -22 -32 -48 -65 -27 -33 -65 -93 -85 -134
l-36 -74 -43 5 c-202 22 -435 159 -566 331 -107 142 -182 357 -182 527 0 87
34 253 69 337 92 217 295 408 523 489 l88 32 48 101 c113 236 252 388 468 511
213 121 422 163 682 135z m1419 -161 c339 -46 668 -298 829 -634 131 -273 136
-596 14 -889 -18 -43 -43 -90 -55 -104 l-23 -27 -7 40 c-22 131 -63 255 -120
362 -32 62 -33 64 -28 170 6 124 -9 203 -56 307 -101 224 -284 382 -513 446
-179 50 -440 5 -589 -100 l-29 -21 -27 33 c-14 18 -64 70 -110 115 l-84 81 65
46 c68 49 197 113 282 141 129 42 301 55 451 34z m-1410 -400 c69 -26 94 -87
52 -125 -18 -16 -38 -19 -143 -19 -91 -1 -133 -5 -171 -19 -62 -22 -163 -93
-197 -138 -37 -48 -76 -129 -82 -171 -3 -20 -8 -53 -11 -72 -10 -60 -66 -93
-106 -62 -60 46 -50 161 27 308 72 137 214 254 360 294 60 16 232 19 271 4z
m577 -169 c45 -42 101 -136 121 -204 l12 -41 194 -6 c150 -5 214 -11 283 -28
190 -46 382 -165 497 -309 65 -81 149 -242 174 -337 22 -81 30 -254 16 -340
-14 -89 -39 -175 -52 -175 -5 0 -35 21 -65 46 -31 25 -81 58 -111 72 -51 25
-54 29 -48 57 25 127 12 245 -41 355 -81 170 -209 280 -399 343 -53 18 -97 21
-355 26 l-295 6 -6 120 c-7 126 -18 169 -69 263 -45 84 -39 146 18 176 47 26
78 20 126 -24z m104 -1052 c104 -37 174 -82 256 -163 70 -69 128 -160 155
-247 l12 -37 108 6 c94 5 117 3 177 -16 119 -39 217 -112 284 -211 13 -19 29
-38 35 -42 5 -4 134 -8 286 -8 308 0 330 -4 405 -65 78 -64 114 -158 80 -210
l-16 -25 -1654 0 c-910 0 -1661 3 -1670 6 -36 14 -12 142 49 270 70 146 198
253 359 301 37 11 84 14 175 12 l124 -4 14 47 c37 128 164 276 294 341 120 61
194 77 334 74 99 -3 133 -8 193 -29z m694 -1348 c84 -121 272 -435 297 -495
37 -88 36 -216 -2 -298 -37 -81 -123 -168 -200 -203 -83 -38 -201 -40 -292 -4
-83 32 -173 122 -205 205 -34 88 -34 217 2 300 42 101 337 580 348 568 4 -5
27 -37 52 -73z m-1800 -137 c161 -248 191 -301 218 -378 54 -157 -4 -342 -138
-439 -104 -76 -256 -94 -367 -43 -101 47 -179 135 -209 237 -32 109 -16 216
53 345 58 107 291 485 300 485 5 0 69 -93 143 -207z m-954 77 c52 -32 74 -76
69 -138 -3 -45 -9 -59 -40 -89 -30 -31 -44 -37 -91 -41 -93 -8 -156 48 -156
138 0 60 41 125 90 143 34 12 96 6 128 -13z m3650 -7 c117 -86 55 -263 -92
-263 -85 0 -146 59 -146 142 0 44 39 107 81 130 43 23 119 19 157 -9z m-1818
-72 c68 -48 89 -134 50 -199 -76 -125 -270 -77 -270 68 0 120 128 197 220 131z"/>
<path d="M4160 3678 c-109 -54 -189 -182 -198 -314 -8 -132 39 -210 125 -205
48 2 69 63 38 105 -18 24 -20 100 -3 147 17 52 59 105 101 131 69 42 78 52 79
87 1 24 -5 40 -22 53 -30 24 -65 23 -120 -4z"/>
</g>
</svg>
